<?xml version="1.0" standalone="no"?>
<!DOCTYPE svg PUBLIC "-//W3C//DTD SVG 20010904//EN"
 "http://www.w3.org/TR/2001/REC-SVG-20010904/DTD/svg10.dtd">
<svg version="1.0" xmlns="http://www.w3.org/2000/svg"
 width="700.000000pt" height="700.000000pt" viewBox="0 0 700.000000 700.000000"
 preserveAspectRatio="xMidYMid meet">

<g transform="translate(0.000000,700.000000) scale(0.100000,-0.100000)"
fill="#000000" stroke="none">
<path d="M0 3500 l0 -3500 3500 0 3500 0 0 3500 0 3500 -3500 0 -3500 0 0
-3500z m2070 365 c202 -335 371 -610 376 -609 5 0 86 131 180 290 94 159 257
433 361 609 l190 320 186 3 187 2 0 -332 c0 -183 3 -629 7 -990 l6 -658 -216
0 -217 0 -2 596 -3 595 -189 -318 c-104 -175 -235 -395 -290 -490 l-101 -172
-105 0 -105 -1 -141 233 c-78 127 -209 342 -290 477 l-149 245 -3 -582 -2
-583 -213 0 -213 0 -2 990 -2 990 191 -2 191 -3 368 -610z m2494 -87 c164
-387 301 -706 305 -710 3 -4 123 264 266 595 142 331 280 649 305 707 l47 105
226 3 226 2 -129 -297 c-71 -164 -264 -608 -428 -988 l-299 -690 -228 0 -228
0 -78 180 c-42 99 -163 380 -269 625 -400 927 -500 1159 -500 1164 0 4 109 6
243 6 l242 0 299 -702z"/>
</g>
</svg>
